# xmcd CD database file
#
# Track frame offsets:
#	150
#	22780
#	42525
#
# Disc length: 866 seconds
#
# Revision: 0
# Processed by: cddbd v1.5.1PL0 Copyright (c) Steve Scherf et al.
# Submitted via: CDex 1.51
#
DISCID=1a036003
DTITLE=松澤由美 - earth song
DYEAR=1998
DGENRE=J-POP
TTITLE0=earth song -大地の詩-
TTITLE1=君のかけら
TTITLE2=earth song -大地の詩-　(オリジナル・カラオケ)
EXTD=YEAR: 1998
EXTT0=
EXTT1=
EXTT2=
PLAYORDER=
